<?xml version="1.0" encoding="UTF-8"?> <svg xmlns="http://www.w3.org/2000/svg" id="b163a644-979b-4ab0-afaf-a441cd5a1930" data-name="Layer 1" width="84.3833" height="93.7671" viewBox="0 0 84.3833 93.7671"><title>Logo-Restaurant</title><path d="M61.4378,65.4536a10.2882,10.2882,0,0,0,2.4361-3.5574,1.5448,1.5448,0,0,1,1.4448-1.1239A11.7377,11.7377,0,0,0,71.22,58.4189a11.4858,11.4858,0,0,0,4.815-10.95l-.0221-.0172-.195-2.927a1.3012,1.3012,0,0,1-.9255-.9507c-.2466-.6637-.3685-.9668-.2109-1.104l.1978-1.6554.0193-.1344h-.0731a3.1218,3.1218,0,0,1,.2777-1.4048l.2681-3.1222a1.9919,1.9919,0,0,1,.02-.2373l.0544-.6321-.3729-2.1814a1.1042,1.1042,0,0,1-.381-1.0017.3379.3379,0,0,1,.1242-.2422L73.4081,29.452a2.2216,2.2216,0,0,1-.8429-1.2218.3872.3872,0,0,1,.021-.2378L72.1,26.0942c-.1066-.0006-.2137-.0023-.32-.0028-.8876-.0039-1.2572-.1864-1.1932-1.1538a11.3726,11.3726,0,0,0-2.092-7.293,12.1078,12.1078,0,0,0-11.1274-4.9014c-1.5973.1891-1.5877.2688-2.07-1.1411-.3083-.901-.2392-.9751.7725-1.0226A20.04,20.04,0,0,1,63.74,11.7614c5.18,1.8247,10.0822,6.0867,9.5018,12.814-.0583.6775.2483,1.1554.933,1.1819.6473.0244.938-.4557.9772-1.0641a12.2885,12.2885,0,0,0-2.3579-8.5414C68.389,10.42,62.2461,8.4987,55.17,8.8345a1.1632,1.1632,0,0,1-1.3047-.6223,13.7524,13.7524,0,0,0-2.4487-3.1183c-.429-.4065-.9289-.6056-1.4362-.1062a.8406.8406,0,0,0,.0686,1.33,14.7234,14.7234,0,0,1,4.1,8.3074,62.1615,62.1615,0,0,1,.7136,6.84c.0216.2733.0629.6571-.3361.656-.3525-.0005-.2409-.3766-.2579-.5984a22.6019,22.6019,0,0,0-1.4873-6.787,16.1614,16.1614,0,0,0-5.8239-7.7526,6.875,6.875,0,0,0-8.9294.8777,7.1482,7.1482,0,0,0-1.5989,4.7229c-.0187.5879.2414,1.178.9913,1.1332.6383-.0381.9279-.4823.8956-1.1183a7.2814,7.2814,0,0,1,.0266-.943,4.4393,4.4393,0,0,1,5.5-3.974,7.6858,7.6858,0,0,1,4.3145,2.7992,18.9076,18.9076,0,0,1,4.0492,9.2106,21.253,21.253,0,0,1,.1808,3.0116.8945.8945,0,0,1-.8581.8716c-.5543.0753-.3463-.4845-.3651-.7737a13.2465,13.2465,0,0,0-.4426-3.0752c-.1683-.5437-.471-1.0309-1.1529-.8861-.7074.1505-.8468.6759-.7062,1.3175.1621.7373.3021,1.48.45,2.22.3383,1.69.0124,3.0658-1.7521,3.8827-.4024.1858-.5945.2566-.8581-.1178-.5816-.8252-1.2356-1.6045-1.7735-2.4546-1.3371-2.1156-2.56-4.2843-2.53-6.8821a2.2617,2.2617,0,0,1,1.166-2.3047,2.4542,2.4542,0,0,1,2.7342.6288c.5645.5011,1.1574,1.1665,1.8529.4243.7828-.8347-.1582-1.3634-.679-1.8275-2.3137-2.0608-5.4935-1.5375-6.5358,1.0786a7.22,7.22,0,0,0-.1242,4.3682A20.8532,20.8532,0,0,0,44.98,26.94c.3469.4558.6031.7556.0108,1.2362-.6207.5039-.9721.2107-1.32-.2566a20.866,20.866,0,0,1-1.8783-2.9441,37.5058,37.5058,0,0,1-2.8919-8.548c-.1411-.5968-.4959-1.0337-1.12-.91-.6394.1261-.9063.5812-.6836,1.2859.2738.8672.4274,1.7693.6632,2.6487a24.94,24.94,0,0,0,4.4868,9.5707c.4511.5537.4194.8385-.1877,1.2345a21.9289,21.9289,0,0,1-6.6077,2.9668c-2.2746.5791-2.8539.4463-3.8832-1.1189-1.5842-2.4093-1.6516-5.1128-1.3036-7.8246.1457-1.1344,1.08-1.4364,2.0989-.8622a7.6692,7.6692,0,0,1,.8592.59,17.3307,17.3307,0,0,1,3.8837,4.4812c.3073.4662.6825.7588,1.2685.4065a.8468.8468,0,0,0,.2874-1.3562,17.6826,17.6826,0,0,0-4.49-5.0884,2.0476,2.0476,0,0,1-.74-1.0619,38.2489,38.2489,0,0,1-1.4283-5.8522,22.2135,22.2135,0,0,1-.3707-5.6371A8,8,0,0,1,35.938,3.1813c3.6791-2.0248,7.3406-1.6631,10.9228.2932.5736.313,1.0787.5016,1.5066-.1228.43-.6272.0867-1.083-.4705-1.3988A12.8071,12.8071,0,0,0,36.791.7687a10.1709,10.1709,0,0,0-6.8249,7.5348c-.1547.6532-.429.766-1.05.7008a11.6335,11.6335,0,0,0-5.2951.7771c-.5254.1946-1.0361.5624-.77,1.2057a.9759.9759,0,0,0,1.4357.5,9.4261,9.4261,0,0,1,3.9688-.6361c1.3773.0321,1.3745.0387,1.4651,1.4132a8.2665,8.2665,0,0,0,.1088,1.032c.0959.4945-.0776.6986-.5877.8629a8.1241,8.1241,0,0,0-3.7381,2.3677c-2.5421,2.9209-2.7025,6.3323-2.0915,9.8716a18.47,18.47,0,0,0,2.2916,5.6487c.0669.0863.1876.1714.0584.2848-.1207.1051-.212.0039-.2993-.0713A9.2269,9.2269,0,0,1,22.345,30.458a11.3337,11.3337,0,0,1-1.8733-16.4632c.44-.5044.6711-1.0017.1167-1.4635-.513-.4264-1.023-.2815-1.4873.2583a12.1743,12.1743,0,0,0-2.4882,12.679c2,5.5956,6.3419,8.751,12.26,9.7554A18.8735,18.8735,0,0,0,42.91,31.8358c2.74-1.8424,5.3569-3.8578,8.07-5.7394a14.5277,14.5277,0,0,1,8.1036-2.9253,14.0853,14.0853,0,0,1,11.6778,5.7151,4.7932,4.7932,0,0,1,1.3138,2.3644c-.1609-.0177-.2664,0-.3315-.0426a6.4876,6.4876,0,0,1-.6167-.4507,22.4761,22.4761,0,0,0-8.0707-4.4386c-.6445-.1864-1.2017-.1985-1.4573.4364-.2885.7174.1978,1.1145.8616,1.3042a21.7628,21.7628,0,0,1,9.9473,6.449c.7437.7959,1.5451,1.5808,1.2487,2.8778-1.0526,4.5994-3.1044,8.5269-7.4506,11.0025-1.9747,1.1245-2.1958,1.1018-3.3736-.7168-.0346-.0531-.0641-.1089-.1-.1609-.3441-.4978-.471-.8507.3684-1.01a8.9578,8.9578,0,0,0,2.9456-1.0978c.4648-.2782.8151-.7047.449-1.2561a.9439.9439,0,0,0-1.408-.2992,9.2605,9.2605,0,0,1-3.7534,1.0785,1.947,1.947,0,0,1-1.4464-.3772,9.718,9.718,0,0,0-7.0647-1.901,3.1291,3.1291,0,0,1-1.9985-.4978c-1.243-.77-2.4962-1.5248-3.7454-2.2859-.1-.3938-1.0639-.3949-.6359-.8949a5.2948,5.2948,0,0,1,1.91-1.33c.5418-.2318.7124.604,1.1948.7494a11.8919,11.8919,0,0,0,4.2867,2.94.799.799,0,0,0,.7357.0277.8755.8755,0,0,0,.5946-.7815,1.0426,1.0426,0,0,0-.7641-.9884A13.2938,13.2938,0,0,1,50.6385,37.02c-.4058-.3766-.5917-.7135.0766-1.0746.7827-.4227,1.51-.942,2.2706-1.4054a.842.842,0,0,1,1.1868.1344,12.89,12.89,0,0,0,3.2082,2.376c2.0772,1.0586,3.8893.9518,5.1527-.3346.4126-.42.6626-.8618.1808-1.3916-.4851-.5337-.95-.3788-1.41.0415a2.165,2.165,0,0,1-2.1629.42,8.9661,8.9661,0,0,1-3.2976-2.0288c-.301-.2439-.2308-.4308.1683-.5757a11.3882,11.3882,0,0,1,8.014-.41c1.18.4309,2.3965.9408,2.5931,2.4663a3.4974,3.4974,0,0,1-.6977,2.5662,7.0518,7.0518,0,0,1-4.78,2.8507c-.674.1111-1.1138.4336-1.04,1.0973a.8859.8859,0,0,0,1.1359.7472,9.7329,9.7329,0,0,0,5.0428-2.3528,11.4744,11.4744,0,0,0,2.1658-2.9624,5.4282,5.4282,0,0,1-.3673,3.9314c-.2794.5017-.3157,1.0271.3542,1.3479.6666.32.9829-.0382,1.29-.5476a5.9013,5.9013,0,0,0,.8252-2.8661c.1729-4.3439-3.7227-8.0391-8.0542-8.5308-4.8178-.5465-8.9243,1.2843-12.7378,3.9319q-.7914.5019-1.5824,1.0044a1.2661,1.2661,0,0,0-.04.1366c-.4705-.0453-.6331.5022-1.0673.5287-.0385.0985-.0776.1969-.1162.2954a3.3074,3.3074,0,0,0-1.0939.7578c-.8939.417-.8349.7372-1.4357.7854-.1972.1526-.3832.3229-.594.4557-.8769.5508-1.7611,1.09-2.6424,1.6338a3.5541,3.5541,0,0,0-.5448.1692A33.66,33.66,0,0,1,28.3621,43.44c-3.992.3313-7.8871.0045-11.44-2.1482-3.6554-2.214-5.8149-7.4047-4.5588-11.4577.7618,1.0707,1.3427,2.1725,2.1453,3.1327a19.2324,19.2324,0,0,0,5.7474,4.62c.5436.2921,1.0588.36,1.4164-.2306.352-.58.0958-1.0066-.4619-1.3119-.1684-.0919-.3208-.21-.4886-.3031A15.0245,15.0245,0,0,1,13.6457,27.86c-.7822-2.0459-1.2861-4.0923.1666-6.1072a.835.835,0,0,0-.35-1.2882c-.552-.3219-.9188-.0414-1.23.3607a6.3384,6.3384,0,0,0-1.0639,5.2057,3.2138,3.2138,0,0,1-.2211,1.8213A12.2775,12.2775,0,0,0,14.58,41.7759a1.3418,1.3418,0,0,1,.4541,1.9408A14.5932,14.5932,0,0,0,18.3688,60.35a21.8614,21.8614,0,0,0,11.0544,5.3362c3.8746.7661,6.508-.38,8.3472-3.7123,1.5224-2.7594,2.5138-5.75,4.0209-8.512,1.8376-3.3683,4.0459-6.3971,7.7465-8.0525,3.9557-1.77,8.2356-1.2455,11.0906,2.34a11.9675,11.9675,0,0,1,2.5313,6.59c.318,3.66-.3241,7.0707-3.0578,9.8417-.4569.4629-.85.9259-.2387,1.52C60.4822,66.3026,61.0082,65.88,61.4378,65.4536ZM29.4749,32.9256a.555.555,0,0,1-.4092.0638,1.3683,1.3683,0,0,1-.7678-.5655c-1.9686-2.2006-3.6041-6.01-3.5181-8.444.0365-3.49.7071-5.8543,2.8959-7.4731,1.52-1.1235,1.7636-1.0125,2.1846.8476a24.6659,24.6659,0,0,0,.6968,2.9436c.138.3843.1776.7156-.41.8617a2.854,2.854,0,0,0-2.1641,2.59,13.1416,13.1416,0,0,0,1.4143,8.7828C29.4713,32.6561,29.6133,32.8038,29.4749,32.9256ZM60.9285,21.4551c-.44.0109-.88.0038-1.3205.0038l-.001-.0584c-.6041.0315-1.2136.0282-1.8113.106-.3825.05-.58-.008-.6056-.4089-.0407-.6419-.0978-1.2834-.1428-1.9253-.0237-.3415.045-.5882.499-.5033a5.5236,5.5236,0,0,1,3.7395,2.25c.0861.1246.1892.3156.148.4293C61.3525,21.5745,61.1052,21.4509,60.9285,21.4551Zm7.75,2.8829c-.1488.1466-.3235-.044-.47-.1523a13.4608,13.4608,0,0,0-3.0037-1.6719,1.5053,1.5053,0,0,1-.9465-.9451A7.5671,7.5671,0,0,0,57.87,16.2792c-.9308-.1311-.7461-.767-.8168-1.2638-.0918-.6417.4627-.5358.8226-.5725.5059-.052,1.0151-.0652,1.5231-.0949,4.2959-.0212,7.7871,2.851,9.037,7.3438a15.0408,15.0408,0,0,1,.33,2.107A.76.76,0,0,1,68.6782,24.338ZM71.4755,47.4a.6826.6826,0,0,1,.2093-.57,13.9846,13.9846,0,0,0,1.4174-2.0035c.2972-.5529.5975-.3965.7682.114a11.4035,11.4035,0,0,1,.77,3.961,10.0378,10.0378,0,0,1-8.2544,9.902c-.4532.0831-.6308-.0553-.5016-.53a.2553.2553,0,0,0,.0189-.09c-.2081-1.8238.6945-2.7265,2.1931-3.6427A6.6368,6.6368,0,0,0,71.4755,47.4Zm-6.7174,4.6017a13.7447,13.7447,0,0,0,3.4478-1.6413.5419.5419,0,0,1,.5667-.0993c.0708,1.3533-.8372,2.2582-1.7413,3.1637a1.1138,1.1138,0,0,1-.1489.0953c-.5715.4028-1.2025,1.1818-1.7923.9636-.6438-.2383-.3835-1.2576-.669-1.8971C64.3022,52.3209,64.4233,52.0932,64.7581,52.0019Zm-34.4389,11.09a18.187,18.187,0,0,1-6.3274-1.9347,13.9719,13.9719,0,0,1-6.449-6.1034A12.7784,12.7784,0,0,1,17.186,43.5c.2011-.4511.3745-.5836.8758-.3279a10.0119,10.0119,0,0,0,2.6474.9473c.4377.0841.6842.2388.2376.6921C17.4926,48.3192,18.72,53.9242,22.3949,56.77a11.2953,11.2953,0,0,0,5.0409,2.2056,1.065,1.065,0,0,1,.6531.2785,13.568,13.568,0,0,0,5.4876,3.2338A5.3845,5.3845,0,0,1,30.3192,63.0914Zm7.3958-4.355a20.3187,20.3187,0,0,0-1.2991,2.431.7439.7439,0,0,1-.9345.4948c-2.9588-.7516-5.4824-2.08-7.0538-4.7a6.6671,6.6671,0,0,1-.1859-6.8751c.3282-.6365.2988-1.1174-.3458-1.4354-.66-.3252-1.08.0767-1.3474.6082a8.5081,8.5081,0,0,0-.6128,6.7082c.1541.4709.6093,1.1531.3394,1.3793-.4723.3964-1.0063-.2374-1.4821-.45a6.9514,6.9514,0,0,1-4.0915-8.5,6.1051,6.1051,0,0,1,1.695-2.2793,4.1,4.1,0,0,1,3.4463-1.0323,25.6229,25.6229,0,0,0,6.67-.5549,1.0907,1.0907,0,0,1,1.2126.35c.5217.5637,1.5056,1.0346,1.5656,1.6127.0688.6538-1.1286.7305-1.7267,1.1375a6.857,6.857,0,0,0-1.9,9.7369c.3758.5209.881,1.0018,1.5709.5937.6928-.41.5005-1.02.0776-1.5577-2.2525-2.8646-.5646-6.5421,2.1725-7.76a10.6952,10.6952,0,0,1,2.3536-.5015,18.8846,18.8846,0,0,0-2.1219,2.763A4.8341,4.8341,0,0,0,37.3445,57.23C37.9761,57.6946,38.1979,58.0309,37.715,58.7364ZM40.584,50.92a24.6321,24.6321,0,0,0-1.9573,4.3879c-.27.7812-.5745.87-1.0883.1944a4.053,4.053,0,0,1-1.0254-2.8934A5.6787,5.6787,0,0,1,38.74,48.9131c.5159-.4021.9451.238,1.4146.4075C41.0225,49.6325,41.1094,50.0231,40.584,50.92Zm3.0238-3.38c-1.4131,1.5146-1.4125,1.5575-3.3569.6a18.4151,18.4151,0,0,1-5.2077-3.7008c1.4428-.4663,2.7417-.8554,4.0136-1.3126a.7423.7423,0,0,1,.966.2358,25.7541,25.7541,0,0,0,3.4987,3.3134C43.8947,46.9636,43.9687,47.1528,43.6078,47.54ZM44.92,44.3893c-.3036.1927-.49.0339-.7237-.1138A25.2623,25.2623,0,0,1,41.1188,41.86c-.3095-.27-.2793-.48.1184-.665.6711-.3129,1.335-.6366,2.0028-.9544a.5372.5372,0,0,1,.5221.0014c1.4632.8279,2.9264,1.6554,4.4811,2.5343A22.1906,22.1906,0,0,0,44.92,44.3893Z"></path><path d="M61.4326,53.9645a5.9892,5.9892,0,0,0-3.6362-5.868,9.7675,9.7675,0,0,0-8.2813.3687c-.5161.2551-.8635.6057-.5256,1.115a1.0342,1.0342,0,0,0,1.4626.3039,8.2179,8.2179,0,0,1,2.2457-.7333c2.6434-.5625,5.5988.3938,6.4949,2.8981.9957,2.7811-.3657,5.962-3.4844,7.8269A10.5351,10.5351,0,0,1,49.46,61.4017c-.6748-.0448-1.1412.2034-1.21.7755-.0686.5655.4226.8056.9986.8855a5.0612,5.0612,0,0,0,1.2027.05,16.8224,16.8224,0,0,0,4.0161-.7464C58.534,60.9024,61.6492,57.4247,61.4326,53.9645Z"></path><path d="M26.296,39.8778a23.77,23.77,0,0,0,12.0679-1.2344,7.1131,7.1131,0,0,0,2.82-1.3107,2.1382,2.1382,0,0,0,1.38-.5492c.0866-.1235.25-.1314.49-.3306.403-.1525.5634-.345.739-.3562.3067-.3339.8188-.4,1.0648-.8131q.4584-.053.9185-.1054c.0332-.39.4344-.551.5555-.8866l.1936-.0235c.5808-.593,1.5116-.8153,1.8178-1.7012a3.7683,3.7683,0,0,0,1.3315-.6946A22.5374,22.5374,0,0,1,57.8589,27.57a.81.81,0,0,0,.6427-1.0054.7538.7538,0,0,0-.92-.7344,4.4171,4.4171,0,0,0-.8419.1464c-4.0144,1.1261-7.21,3.6251-10.3762,6.17q-2.5933,1.7246-5.1855,3.4484a.9948.9948,0,0,0-.7485.3052c-.2285-.0667-.3568.06-.4587.2368-.3045.0915-.6185.1593-.9117.2788a22.68,22.68,0,0,1-14.3529,1.207c-.601-.1493-1.1244-.04-1.3354.5767-.2252.6582.2065,1.037.7783,1.2013A18.7126,18.7126,0,0,0,26.296,39.8778Z"></path><path d="M55.3338,57.1724a.9265.9265,0,0,0,.1447,1.4383c.5781.4345,1.0264.0882,1.3781-.3152a7.07,7.07,0,0,0,1.5545-2.9785,2.7082,2.7082,0,0,0-1.891-3.3631c-2.15-.7815-4.4636-.0306-6.2129,2.0872-2.3638,2.8619-3.5949,6.2534-4.7819,9.6607A21.1609,21.1609,0,0,1,44.5819,66h2.6624a.6936.6936,0,0,1-.182-.9c.71-1.7937,1.2963-3.6359,2.078-5.399a15.0342,15.0342,0,0,1,3.1367-4.9866,3.5546,3.5546,0,0,1,3.3356-1.105.9723.9723,0,0,1,.8834,1.2482A5.3727,5.3727,0,0,1,55.3338,57.1724Z"></path><path d="M47.9392,51.846c.3668-.56.4945-1.115-.1523-1.4811-.6222-.3521-1.1419-.0334-1.49.5288-.0674.1081-.1365.2151-.2045.3227-1.6779,2.6518-2.72,5.59-4.1328,8.36C40.627,62.19,39.1739,64.6526,36.6867,66h3.12c.298-.2784.5887-.57.8664-.8844A24.3724,24.3724,0,0,0,44.22,59.3439,62.5519,62.5519,0,0,1,47.9392,51.846Z"></path><polygon points="0 93.624 1.8 93.624 1.8 88.53 8.118 88.53 8.118 86.982 1.8 86.982 1.8 82.589 8.892 82.589 8.892 81.024 0 81.024 0 93.624"></polygon><path d="M16.938,81.0239l-5.7061,12.6h1.854l1.3863-3.15H21.168l1.3862,3.15h1.89l-5.7236-12.6Zm-1.8359,8.01L17.82,82.86l2.7183,6.1738Z"></path><polygon points="32.508 91.374 27.972 81.024 26.028 81.024 31.572 93.624 33.354 93.624 38.88 81.024 37.08 81.024 32.508 91.374"></polygon><path d="M51.7505,81.7163a7.444,7.444,0,0,0-6.8584,0A6.1867,6.1867,0,0,0,42.4888,84.03a6.65,6.65,0,0,0,0,6.5879A6.1772,6.1772,0,0,0,44.8921,92.93a7.444,7.444,0,0,0,6.8584,0,6.1375,6.1375,0,0,0,2.3935-2.3037,6.7426,6.7426,0,0,0,0-6.6055A6.147,6.147,0,0,0,51.7505,81.7163Zm.8183,8.082a4.6166,4.6166,0,0,1-1.746,1.7373,4.9485,4.9485,0,0,1-2.4922.63,5.0509,5.0509,0,0,1-2.5118-.63,4.5814,4.5814,0,0,1-1.7636-1.7373,5.1151,5.1151,0,0,1,0-4.95,4.5858,4.5858,0,0,1,1.7636-1.7363,5.052,5.052,0,0,1,2.5118-.63,4.95,4.95,0,0,1,2.4922.63,4.621,4.621,0,0,1,1.746,1.7363,5.1151,5.1151,0,0,1,0,4.95Z"></path><polygon points="61.848 81.024 60.047 81.024 60.047 93.624 68.67 93.624 68.67 92.057 61.848 92.057 61.848 81.024"></polygon><path d="M78.66,81.0239H76.8774l-5.706,12.6h1.8545l1.3857-3.15h6.6963l1.3858,3.15h1.89Zm-3.6182,8.01L77.7593,82.86l2.7178,6.1738Z"></path></svg> 